<svg width="535" height="173" viewBox="0 0 535 173" fill="none" xmlns="http://www.w3.org/2000/svg">
<g filter="url(#filter0_d_98_1402)">
<g clip-path="url(#clip0_98_1402)">
<rect x="9.79999" y="34.6417" width="131.022" height="131.022" rx="20" transform="rotate(-10.9294 9.79999 34.6417)" fill="white"/>
<rect x="4.40375" y="31.3" width="143" height="37" transform="rotate(-10.9294 4.40375 31.3)" fill="url(#paint0_linear_98_1402)"/>
<path d="M78.6348 95.4809L85.2536 129.757L76.9858 131.353L71.8602 104.81L71.6594 104.848L64.899 111.015L63.5158 103.852L70.9529 96.9643L78.6348 95.4809ZM92.8309 128.294L91.6804 122.335L102.069 108.976C102.842 107.947 103.49 107.017 104.013 106.187C104.533 105.346 104.897 104.535 105.105 103.754C105.311 102.962 105.332 102.142 105.169 101.294C104.985 100.346 104.623 99.5767 104.081 98.987C103.536 98.3861 102.866 97.9716 102.07 97.7434C101.273 97.5152 100.407 97.4917 99.4695 97.6726C98.5211 97.8558 97.7276 98.2115 97.0889 98.74C96.4481 99.2572 95.9968 99.9172 95.7352 100.72C95.4847 101.521 95.4597 102.44 95.6601 103.477L87.8107 104.993C87.3604 102.661 87.496 100.546 88.2173 98.6476C88.9386 96.7491 90.1593 95.1593 91.8794 93.8781C93.6085 92.5836 95.7339 91.6929 98.2555 91.206C100.855 90.704 103.199 90.7028 105.286 91.2025C107.373 91.7022 109.092 92.6318 110.442 93.9914C111.802 95.3376 112.68 97.0372 113.076 99.0902C113.328 100.396 113.316 101.74 113.039 103.125C112.762 104.509 112.093 106.108 111.032 107.922C109.981 109.734 108.421 111.962 106.35 114.607L102.98 119.181L103.023 119.399L116.914 116.716L118.203 123.394L92.8309 128.294Z" fill="#D0D5DD"/>
<path d="M37.9361 79.2669C37.804 78.8526 37.5368 78.5628 37.1345 78.3974C36.7322 78.232 36.2717 78.1994 35.7528 78.2996C35.3735 78.3729 35.0534 78.4984 34.7926 78.676C34.5345 78.8532 34.3468 79.0645 34.2293 79.31C34.1145 79.5549 34.0836 79.8141 34.1363 80.0874C34.1805 80.3161 34.2729 80.5023 34.4134 80.6459C34.5563 80.7861 34.7246 80.8939 34.9186 80.9693C35.112 81.0419 35.3103 81.0948 35.5134 81.1279C35.716 81.1582 35.9009 81.1789 36.0679 81.19L36.9835 81.2563C37.2179 81.2718 37.4818 81.3047 37.7751 81.3552C38.0712 81.405 38.362 81.495 38.6475 81.625C38.9353 81.7518 39.1881 81.9373 39.406 82.1817C39.6239 82.426 39.7716 82.7491 39.8492 83.1507C39.9386 83.6138 39.898 84.0556 39.7275 84.4762C39.5598 84.8963 39.2657 85.2613 38.8453 85.5711C38.4276 85.8803 37.8896 86.0985 37.2313 86.2256C36.6176 86.3441 36.0671 86.3477 35.5798 86.2364C35.0952 86.1245 34.6904 85.9162 34.3654 85.6115C34.0432 85.3063 33.8201 84.9226 33.6961 84.4604L34.7672 84.2536C34.8576 84.5718 35.0181 84.8185 35.2487 84.9939C35.4816 85.166 35.7544 85.2753 36.0672 85.3219C36.3823 85.3653 36.71 85.3541 37.0503 85.2884C37.4464 85.2119 37.7896 85.079 38.0801 84.8899C38.3699 84.6979 38.5846 84.4684 38.724 84.2013C38.8628 83.9315 38.9021 83.6403 38.8418 83.3279C38.7868 83.0434 38.6626 82.8272 38.4692 82.6794C38.2757 82.5316 38.0385 82.4269 37.7575 82.3655C37.4766 82.304 37.1774 82.2605 36.86 82.235L35.7474 82.1373C35.0408 82.0741 34.4578 81.9017 33.9983 81.6201C33.5388 81.3384 33.2534 80.9089 33.1419 80.3315C33.0492 79.8518 33.0981 79.4083 33.2886 79.0012C33.4813 78.5907 33.7789 78.2439 34.1814 77.9608C34.5861 77.6743 35.0618 77.4782 35.6086 77.3727C36.1609 77.266 36.6709 77.2702 37.1387 77.3853C37.606 77.4977 37.998 77.6997 38.3148 77.9915C38.6343 78.2828 38.8428 78.6433 38.9402 79.073L37.9361 79.2669ZM44.2716 84.8487C43.6691 84.9651 43.1228 84.923 42.6327 84.7225C42.1427 84.522 41.7323 84.1947 41.4015 83.7407C41.0708 83.2866 40.8435 82.7388 40.7196 82.0973C40.5936 81.4446 40.6023 80.8454 40.7458 80.2998C40.8915 79.7508 41.1533 79.2937 41.5313 78.9285C41.9115 78.56 42.3917 78.3197 42.9719 78.2076C43.4237 78.1204 43.8472 78.1254 44.2421 78.2228C44.637 78.3201 44.9793 78.4971 45.269 78.7536C45.5587 79.0101 45.7702 79.3339 45.9036 79.7248L44.9162 79.9154C44.7843 79.6371 44.5668 79.41 44.2638 79.2342C43.963 79.055 43.595 79.0074 43.1599 79.0914C42.775 79.1658 42.4568 79.3314 42.2055 79.5882C41.9565 79.8417 41.786 80.1654 41.6943 80.5593C41.6048 80.9498 41.6069 81.3878 41.7006 81.8731C41.7965 82.3696 41.9581 82.7869 42.1854 83.1249C42.4155 83.4624 42.6938 83.7053 43.0205 83.8534C43.3499 84.001 43.7098 84.0371 44.1003 83.9617C44.357 83.9121 44.5813 83.8225 44.7732 83.6929C44.9652 83.5632 45.1175 83.4007 45.2303 83.2053C45.343 83.01 45.4074 82.7892 45.4235 82.543L46.411 82.3524C46.4285 82.7425 46.3564 83.1109 46.1947 83.4574C46.0353 83.8007 45.7929 84.0963 45.4676 84.3444C45.1445 84.589 44.7458 84.7571 44.2716 84.8487ZM48.2217 79.9368L48.9683 83.8029L47.9808 83.9936L46.3261 75.4246L47.3136 75.2339L47.9211 78.3804L48.0048 78.3642C48.0914 78.0032 48.2664 77.6959 48.5299 77.4425C48.7957 77.1858 49.1811 77.0086 49.686 76.9111C50.1239 76.8266 50.5244 76.8404 50.8875 76.9525C51.25 77.0619 51.5567 77.279 51.8075 77.6039C52.0605 77.9253 52.2404 78.3622 52.347 78.9145L53.1356 82.9982L52.1481 83.1889L51.3725 79.1722C51.2739 78.6617 51.0652 78.2926 50.7464 78.0648C50.4298 77.8337 50.0385 77.7632 49.5727 77.8531C49.2492 77.9156 48.9723 78.0399 48.742 78.2262C48.5146 78.4119 48.3523 78.6501 48.2551 78.9408C48.1606 79.2311 48.1495 79.563 48.2217 79.9368ZM57.4268 82.3084C56.8076 82.428 56.247 82.3945 55.7451 82.2078C55.2455 82.0179 54.8267 81.6994 54.4887 81.2526C54.1529 80.8024 53.9215 80.2482 53.7943 79.5899C53.6672 78.9316 53.6751 78.3282 53.8181 77.7798C53.9632 77.2281 54.2248 76.7696 54.6028 76.4044C54.983 76.0358 55.4632 75.7955 56.0434 75.6835C56.3781 75.6189 56.7194 75.6108 57.0673 75.6594C57.4152 75.7079 57.7473 75.8319 58.0635 76.0312C58.3793 76.2278 58.6562 76.5157 58.8944 76.895C59.1326 77.2744 59.3095 77.7639 59.4253 78.3636L59.5061 78.782L54.5522 79.7387L54.3874 78.8851L58.3371 78.1224C58.2671 77.7598 58.1321 77.4502 57.9321 77.1937C57.7349 76.9367 57.4879 76.7514 57.1912 76.638C56.8972 76.5241 56.5717 76.5016 56.2146 76.5705C55.8213 76.6465 55.4999 76.8098 55.2503 77.0606C55.0029 77.308 54.8324 77.6013 54.7388 77.9405C54.6452 78.2798 54.6326 78.6265 54.701 78.9808L54.8109 79.5498C54.9046 80.0352 55.0677 80.4304 55.3003 80.7356C55.535 81.0375 55.82 81.2472 56.1552 81.3648C56.4899 81.4796 56.8566 81.4984 57.2555 81.4214C57.5149 81.3713 57.7422 81.2898 57.9374 81.1769C58.1349 81.0606 58.296 80.9138 58.4209 80.7363C58.5452 80.5561 58.6277 80.3463 58.6683 80.107L59.674 80.1905C59.636 80.5335 59.5222 80.8506 59.3325 81.1418C59.1423 81.4303 58.886 81.6765 58.5637 81.8806C58.2409 82.0818 57.8619 82.2244 57.4268 82.3084ZM63.7811 81.0814C63.2455 81.1848 62.7466 81.1408 62.2843 80.9494C61.8215 80.7553 61.4264 80.4323 61.099 79.9805C60.771 79.5259 60.5413 78.9583 60.4099 78.2777C60.2796 77.6026 60.2822 76.9945 60.4179 76.4533C60.5535 75.9121 60.8016 75.4663 61.1622 75.116C61.5228 74.7658 61.9736 74.5384 62.5148 74.4339C62.9332 74.3531 63.2772 74.359 63.5468 74.4516C63.8186 74.5409 64.0357 74.661 64.1979 74.8119C64.3624 74.9596 64.4917 75.0822 64.5858 75.1797L64.6695 75.1636L64.0587 72.0004L65.0461 71.8097L66.7008 80.3787L65.7468 80.5629L65.5561 79.5755L65.439 79.5981C65.3891 79.7293 65.3144 79.897 65.215 80.1014C65.1151 80.303 64.9544 80.4975 64.7331 80.6849C64.5112 80.8695 64.1939 81.0017 63.7811 81.0814ZM63.7437 80.1685C64.1398 80.092 64.4546 79.9242 64.6881 79.665C64.921 79.403 65.0731 79.0742 65.1442 78.6785C65.2149 78.28 65.2033 77.8381 65.1096 77.3528C65.0169 76.873 64.8661 76.4667 64.6572 76.1338C64.4477 75.7981 64.1869 75.5562 63.8747 75.4082C63.5621 75.2573 63.2049 75.2207 62.8032 75.2983C62.3848 75.3791 62.0569 75.5538 61.8194 75.8224C61.5842 76.0877 61.4321 76.4166 61.3632 76.8089C61.2966 77.1979 61.3069 77.6184 61.3941 78.0703C61.4825 78.5277 61.6325 78.9299 61.8441 79.2767C62.058 79.6202 62.3243 79.8755 62.643 80.0425C62.9639 80.2062 63.3308 80.2482 63.7437 80.1685ZM71.9535 76.6388L71.2199 72.8397L72.2073 72.649L73.4484 79.0757L72.4609 79.2664L72.2508 78.1786L72.1839 78.1915C72.0963 78.5469 71.9156 78.8697 71.6418 79.1598C71.3674 79.4472 70.9875 79.6377 70.5022 79.7314C70.1005 79.809 69.7265 79.7901 69.3802 79.6747C69.0333 79.5565 68.7361 79.3361 68.4886 79.0135C68.2406 78.6882 68.0639 78.2522 67.9583 77.7054L67.1697 73.6218L68.1572 73.4311L68.9328 77.4478C69.0233 77.9164 69.2266 78.2649 69.5426 78.4932C69.8615 78.721 70.2259 78.7953 70.636 78.7161C70.8814 78.6687 71.119 78.5577 71.3486 78.3832C71.5809 78.2081 71.7586 77.9742 71.8814 77.6813C72.007 77.388 72.0311 77.0405 71.9535 76.6388ZM74.354 70.0124L76.0087 78.5813L75.0213 78.772L73.3666 70.203L74.354 70.0124ZM80.302 77.8912C79.6828 78.0107 79.1222 77.9772 78.6203 77.7906C78.1207 77.6006 77.7019 77.2822 77.3639 76.8353C77.0281 76.3851 76.7967 75.8309 76.6696 75.1726C76.5424 74.5143 76.5504 73.911 76.6933 73.3626C76.8385 72.8108 77.1 72.3523 77.478 71.9871C77.8582 71.6186 78.3384 71.3783 78.9186 71.2662C79.2533 71.2016 79.5946 71.1936 79.9425 71.2421C80.2904 71.2907 80.6225 71.4146 80.9388 71.614C81.2545 71.8105 81.5314 72.0984 81.7696 72.4778C82.0078 72.8571 82.1848 73.3466 82.3006 73.9464L82.3814 74.3648L77.4274 75.3214L77.2626 74.4678L81.2124 73.7051C81.1423 73.3425 81.0073 73.0329 80.8073 72.7764C80.6101 72.5194 80.3632 72.3342 80.0664 72.2208C79.7724 72.1068 79.4469 72.0843 79.0899 72.1533C78.6966 72.2292 78.3751 72.3926 78.1255 72.6433C77.8782 72.8907 77.7077 73.184 77.614 73.5233C77.5204 73.8625 77.5078 74.2093 77.5762 74.5635L77.6861 75.1326C77.7798 75.6179 77.9429 76.0132 78.1755 76.3184C78.4103 76.6202 78.6953 76.83 79.0304 76.9475C79.3651 77.0623 79.7319 77.0812 80.1307 77.0041C80.3902 76.954 80.6175 76.8725 80.8127 76.7596C81.0101 76.6434 81.1713 76.4965 81.2961 76.319C81.4205 76.1388 81.5029 75.929 81.5435 75.6897L82.5492 75.7733C82.5113 76.1162 82.3974 76.4333 82.2077 76.7246C82.0175 77.013 81.7612 77.2593 81.439 77.4633C81.1161 77.6645 80.7372 77.8071 80.302 77.8912ZM85.761 67.8096L86.9995 67.5705L91.2851 74.1211L91.3855 74.1017L92.9241 66.4264L94.1626 66.1873L95.8173 74.7562L94.8466 74.9437L93.5894 68.4333L93.5057 68.4494L92.0851 75.4769L91.1479 75.6579L87.2129 69.6646L87.1292 69.6808L88.3864 76.1912L87.4157 76.3786L85.761 67.8096ZM100.249 74.0394C99.6294 74.159 99.0689 74.1255 98.567 73.9388C98.0674 73.7488 97.6486 73.4304 97.3106 72.9836C96.9748 72.5334 96.7433 71.9791 96.6162 71.3209C96.4891 70.6626 96.497 70.0592 96.64 69.5108C96.7851 68.9591 97.0467 68.5006 97.4247 68.1354C97.8049 67.7668 98.2851 67.5265 98.8652 67.4145C99.2 67.3499 99.5413 67.3418 99.8892 67.3904C100.237 67.4389 100.569 67.5629 100.885 67.7622C101.201 67.9588 101.478 68.2467 101.716 68.626C101.954 69.0054 102.131 69.4949 102.247 70.0946L102.328 70.513L97.3741 71.4696L97.2093 70.6161L101.159 69.8534C101.089 69.4908 100.954 69.1812 100.754 68.9247C100.557 68.6676 100.31 68.4824 100.013 68.369C99.7191 68.2551 99.3936 68.2326 99.0365 68.3015C98.6432 68.3775 98.3218 68.5408 98.0722 68.7915C97.8248 69.039 97.6543 69.3323 97.5607 69.6715C97.4671 70.0108 97.4545 70.3575 97.5229 70.7118L97.6328 71.2808C97.7265 71.7662 97.8896 72.1614 98.1221 72.4666C98.3569 72.7685 98.6419 72.9782 98.9771 73.0958C99.3118 73.2105 99.6785 73.2294 100.077 73.1524C100.337 73.1023 100.564 73.0208 100.759 72.9079C100.957 72.7916 101.118 72.6448 101.243 72.4673C101.367 72.287 101.45 72.0773 101.49 71.838L102.496 71.9215C102.458 72.2645 102.344 72.5816 102.154 72.8728C101.964 73.1613 101.708 73.4075 101.386 73.6115C101.063 73.8128 100.684 73.9554 100.249 74.0394ZM106.871 72.7607C106.251 72.8803 105.691 72.8467 105.189 72.6601C104.689 72.4701 104.271 72.1517 103.933 71.7048C103.597 71.2547 103.365 70.7004 103.238 70.0421C103.111 69.3838 103.119 68.7805 103.262 68.2321C103.407 67.6803 103.669 67.2218 104.047 66.8566C104.427 66.4881 104.907 66.2478 105.487 66.1358C105.822 66.0711 106.163 66.0631 106.511 66.1116C106.859 66.1602 107.191 66.2841 107.507 66.4835C107.823 66.68 108.1 66.968 108.338 67.3473C108.576 67.7266 108.753 68.2162 108.869 68.8159L108.95 69.2343L103.996 70.1909L103.831 69.3374L107.781 68.5746C107.711 68.212 107.576 67.9025 107.376 67.646C107.179 67.3889 106.932 67.2037 106.635 67.0903C106.341 66.9763 106.016 66.9538 105.659 67.0228C105.265 67.0987 104.944 67.2621 104.694 67.5128C104.447 67.7602 104.276 68.0535 104.183 68.3928C104.089 68.732 104.077 69.0788 104.145 69.433L104.255 70.0021C104.349 70.4874 104.512 70.8827 104.744 71.1879C104.979 71.4898 105.264 71.6995 105.599 71.817C105.934 71.9318 106.301 71.9507 106.699 71.8737C106.959 71.8236 107.186 71.742 107.381 71.6291C107.579 71.5129 107.74 71.366 107.865 71.1886C107.989 71.0083 108.072 70.7985 108.112 70.5592L109.118 70.6428C109.08 70.9857 108.966 71.3028 108.776 71.5941C108.586 71.8826 108.33 72.1288 108.008 72.3328C107.685 72.534 107.306 72.6766 106.871 72.7607ZM112.326 64.9019L112.488 65.7387L109.157 66.3819L108.996 65.5451L112.326 64.9019ZM109.669 63.8179L110.657 63.6272L111.839 69.7527C111.893 70.0316 111.974 70.233 112.082 70.3569C112.192 70.4774 112.316 70.549 112.453 70.5716C112.593 70.5909 112.735 70.5866 112.88 70.5586C112.989 70.5376 113.077 70.5147 113.145 70.4901C113.212 70.4627 113.266 70.4408 113.306 70.4243L113.678 71.2726C113.616 71.3106 113.527 71.3537 113.412 71.402C113.298 71.4531 113.148 71.4964 112.964 71.5319C112.685 71.5858 112.4 71.5786 112.109 71.5104C111.821 71.4416 111.566 71.3014 111.343 71.0899C111.122 70.8778 110.976 70.5849 110.904 70.2111L109.669 63.8179ZM114.817 71.0873L113.576 64.6606L114.563 64.4699L115.804 70.8967L114.817 71.0873ZM113.871 63.4925C113.679 63.5297 113.5 63.4962 113.335 63.392C113.173 63.2873 113.075 63.1429 113.039 62.9588C113.004 62.7747 113.041 62.6039 113.153 62.4464C113.267 62.2884 113.42 62.1908 113.613 62.1536C113.805 62.1165 113.982 62.1502 114.144 62.2549C114.309 62.3591 114.409 62.5032 114.445 62.6873C114.48 62.8714 114.441 63.0425 114.327 63.2005C114.216 63.358 114.064 63.4554 113.871 63.4925ZM117.618 66.5362L118.365 70.4023L117.377 70.5929L116.136 64.1662L117.09 63.982L117.284 64.9862L117.368 64.97C117.456 64.6146 117.634 64.3082 117.902 64.0509C118.17 63.7908 118.547 63.6139 119.032 63.5202C119.467 63.4362 119.865 63.4519 120.226 63.5674C120.587 63.6801 120.892 63.8989 121.143 64.2237C121.393 64.5457 121.571 64.9801 121.677 65.5268L122.465 69.6105L121.478 69.8011L120.702 65.7844C120.605 65.2795 120.398 64.9116 120.081 64.6805C119.764 64.4466 119.377 64.3738 118.919 64.4621C118.604 64.523 118.335 64.6458 118.114 64.8304C117.894 65.0145 117.739 65.2513 117.647 65.541C117.556 65.8307 117.546 66.1624 117.618 66.5362ZM127.119 71.3505C126.642 71.4426 126.22 71.4604 125.854 71.404C125.487 71.3503 125.171 71.2465 124.904 71.0926C124.64 70.941 124.42 70.7665 124.243 70.5692L124.923 69.865C125.035 69.9649 125.174 70.077 125.339 70.2012C125.506 70.3283 125.718 70.4247 125.977 70.4905C126.239 70.5585 126.564 70.5551 126.951 70.4802C127.47 70.38 127.874 70.1718 128.163 69.8556C128.452 69.5394 128.545 69.1135 128.441 68.5779L128.189 67.2725L128.106 67.2887C128.056 67.4198 127.981 67.5848 127.88 67.7836C127.782 67.9791 127.622 68.1677 127.399 68.3496C127.179 68.5281 126.86 68.6577 126.441 68.7385C125.922 68.8387 125.433 68.8059 124.973 68.6402C124.515 68.4739 124.121 68.1796 123.791 67.7573C123.463 67.3345 123.235 66.7883 123.106 66.1189C122.979 65.4606 122.984 64.865 123.121 64.3322C123.258 63.7965 123.507 63.3549 123.868 63.0074C124.228 62.6572 124.679 62.4298 125.22 62.3253C125.639 62.2445 125.984 62.2501 126.256 62.3422C126.531 62.4309 126.751 62.5505 126.916 62.7009C127.083 62.848 127.214 62.9703 127.308 63.0679L127.408 63.0485L127.211 62.0276L128.165 61.8434L129.442 68.4542C129.548 69.0065 129.51 69.4798 129.325 69.8742C129.145 70.2708 128.859 70.5907 128.469 70.8338C128.082 71.0792 127.633 71.2514 127.119 71.3505ZM126.404 67.8256C126.8 67.7491 127.117 67.5938 127.356 67.3597C127.594 67.1257 127.751 66.8247 127.828 66.4569C127.904 66.0892 127.897 65.6682 127.805 65.194C127.716 64.731 127.567 64.3358 127.359 64.0085C127.152 63.6811 126.892 63.4434 126.579 63.2954C126.267 63.1474 125.91 63.1121 125.509 63.1897C125.09 63.2705 124.762 63.4438 124.524 63.7097C124.289 63.975 124.136 64.2996 124.065 64.6836C123.998 65.067 124.006 65.4763 124.09 65.9115C124.176 66.3578 124.322 66.739 124.528 67.0551C124.736 67.368 124.997 67.5954 125.311 67.7373C125.627 67.8759 125.991 67.9053 126.404 67.8256Z" fill="#667185"/>
</g>
</g>
<g filter="url(#filter1_d_98_1402)">
<rect x="255.368" y="26.6424" width="131.022" height="131.022" rx="20" transform="rotate(-4.96373 255.368 26.6424)" fill="white"/>
<path d="M279.453 44.8997L282.669 51.9945L282.771 51.9857L284.717 44.4425L285.821 44.3466L283.383 53.3184L282.296 53.4128L278.349 44.9956L279.453 44.8997ZM289.609 52.9146C289.02 52.9657 288.492 52.8705 288.023 52.6289C287.557 52.387 287.178 52.025 286.885 51.5429C286.595 51.0605 286.421 50.4825 286.362 49.8089C286.303 49.1296 286.375 48.526 286.577 47.998C286.782 47.4697 287.093 47.0463 287.51 46.7278C287.93 46.409 288.435 46.2241 289.023 46.1729C289.612 46.1218 290.139 46.2172 290.605 46.459C291.074 46.7006 291.453 47.064 291.744 47.5493C292.037 48.0342 292.213 48.6164 292.272 49.2956C292.33 49.9692 292.257 50.5687 292.052 51.0942C291.849 51.6193 291.538 52.0413 291.118 52.3601C290.701 52.6786 290.198 52.8635 289.609 52.9146ZM289.531 52.0146C289.978 51.9757 290.336 51.8292 290.605 51.5748C290.874 51.3205 291.061 51.0005 291.167 50.6149C291.273 50.2293 291.308 49.8185 291.27 49.3826C291.232 48.9468 291.127 48.5467 290.956 48.1823C290.785 47.8179 290.545 47.5322 290.236 47.3252C289.927 47.1182 289.549 47.0341 289.102 47.073C288.654 47.1118 288.297 47.2598 288.028 47.5169C287.76 47.7741 287.572 48.0969 287.466 48.4854C287.36 48.8738 287.326 49.286 287.364 49.7219C287.402 50.1577 287.506 50.5564 287.678 50.918C287.849 51.2795 288.089 51.5624 288.397 51.7666C288.706 51.9707 289.084 52.0534 289.531 52.0146ZM293.842 52.4101L293.276 45.8892L294.278 45.8021L294.844 52.323L293.842 52.4101ZM293.691 44.7581C293.496 44.7751 293.322 44.7232 293.168 44.6024C293.018 44.4815 292.935 44.3276 292.919 44.1408C292.903 43.954 292.958 43.788 293.085 43.643C293.215 43.4977 293.378 43.4165 293.573 43.3996C293.768 43.3826 293.941 43.4346 294.091 43.5556C294.244 43.6763 294.329 43.8301 294.345 44.0169C294.361 44.2037 294.305 44.3697 294.175 44.515C294.047 44.6601 293.886 44.7411 293.691 44.7581ZM299.101 52.0902C298.49 52.1433 297.951 52.0447 297.484 51.7943C297.018 51.544 296.643 51.1758 296.362 50.6899C296.08 50.2039 295.911 49.6354 295.854 48.9845C295.797 48.3222 295.868 47.7272 296.067 47.1994C296.269 46.6686 296.577 46.2412 296.991 45.9173C297.407 45.5902 297.91 45.4011 298.499 45.35C298.957 45.3102 299.378 45.3592 299.76 45.4971C300.143 45.6349 300.465 45.8465 300.727 46.1318C300.988 46.417 301.165 46.761 301.257 47.1636L300.255 47.2506C300.153 46.9601 299.96 46.7116 299.677 46.5052C299.396 46.2958 299.035 46.2102 298.594 46.2486C298.203 46.2825 297.87 46.4141 297.593 46.6435C297.319 46.8697 297.116 47.174 296.983 47.5561C296.854 47.9353 296.81 48.371 296.853 48.8635C296.897 49.3673 297.014 49.7991 297.205 50.1589C297.399 50.5185 297.651 50.7889 297.96 50.9702C298.272 51.1513 298.627 51.2246 299.023 51.1902C299.283 51.1676 299.516 51.1018 299.72 50.9928C299.924 50.8838 300.093 50.738 300.225 50.5554C300.358 50.3728 300.445 50.1599 300.486 49.9167L301.488 49.8297C301.465 50.2195 301.355 50.5784 301.158 50.9063C300.964 51.2312 300.692 51.5 300.343 51.7129C299.996 51.9226 299.582 52.0484 299.101 52.0902ZM305.625 51.5236C304.997 51.5782 304.443 51.4866 303.963 51.2488C303.486 51.0079 303.102 50.6477 302.812 50.1681C302.525 49.6855 302.353 49.1102 302.295 48.4422C302.237 47.7743 302.307 47.175 302.506 46.6445C302.708 46.1108 303.016 45.682 303.43 45.358C303.846 45.031 304.349 44.8419 304.937 44.7908C305.277 44.7613 305.617 44.7888 305.958 44.8732C306.299 44.9577 306.617 45.1155 306.911 45.3466C307.204 45.5749 307.45 45.89 307.647 46.2921C307.845 46.6941 307.97 47.1994 308.023 47.8079L308.059 48.2324L303.033 48.669L302.958 47.8029L306.965 47.4549C306.933 47.0869 306.831 46.765 306.659 46.4891C306.49 46.213 306.263 46.0031 305.98 45.8594C305.699 45.7156 305.378 45.6593 305.016 45.6908C304.617 45.7255 304.28 45.8545 304.006 46.078C303.734 46.2983 303.534 46.5723 303.405 46.9C303.277 47.2277 303.228 47.5713 303.26 47.9307L303.31 48.5081C303.353 49.0005 303.474 49.4106 303.673 49.7383C303.875 50.063 304.137 50.3012 304.458 50.4529C304.779 50.6018 305.142 50.6587 305.547 50.6236C305.81 50.6007 306.044 50.5433 306.25 50.4513C306.459 50.3562 306.634 50.2269 306.777 50.0633C306.919 49.897 307.023 49.6969 307.088 49.4631L308.08 49.6507C308.007 49.9879 307.86 50.2915 307.641 50.5614C307.422 50.8285 307.142 51.0468 306.8 51.2162C306.458 51.3828 306.066 51.4853 305.625 51.5236ZM319.334 44.1735L318.282 44.2649C318.193 43.9675 318.061 43.7109 317.885 43.4952C317.713 43.2792 317.509 43.1029 317.275 42.9665C317.043 42.8269 316.791 42.729 316.518 42.6729C316.245 42.6168 315.964 42.6012 315.675 42.6263C315.149 42.672 314.684 42.8465 314.279 43.1496C313.878 43.4525 313.574 43.8739 313.367 44.4137C313.163 44.9533 313.094 45.5995 313.159 46.3523C313.224 47.1052 313.404 47.7298 313.698 48.2261C313.995 48.7221 314.367 49.0847 314.815 49.3139C315.265 49.5428 315.754 49.6344 316.28 49.5887C316.569 49.5636 316.843 49.4999 317.102 49.3976C317.361 49.2952 317.593 49.1568 317.797 48.9822C318.004 48.8045 318.174 48.5944 318.307 48.3519C318.443 48.1063 318.529 47.8308 318.565 47.5254L319.618 47.4339C319.577 47.8851 319.467 48.2953 319.288 48.6645C319.109 49.0336 318.875 49.3548 318.585 49.6281C318.295 49.8985 317.961 50.1143 317.585 50.2753C317.211 50.4361 316.804 50.5355 316.366 50.5736C315.624 50.638 314.949 50.5142 314.34 50.2021C313.731 49.8899 313.232 49.4143 312.843 48.7751C312.454 48.1359 312.22 47.3578 312.14 46.4408C312.06 45.5238 312.157 44.717 312.43 44.0203C312.703 43.3236 313.113 42.769 313.659 42.3566C314.205 41.9442 314.848 41.7058 315.59 41.6414C316.029 41.6033 316.446 41.6312 316.842 41.7251C317.241 41.8188 317.607 41.9752 317.939 42.1944C318.272 42.4108 318.558 42.6854 318.798 43.0181C319.037 43.348 319.216 43.7332 319.334 44.1735ZM323.841 49.9415C323.252 49.9927 322.724 49.8974 322.255 49.6558C321.789 49.414 321.41 49.052 321.117 48.5698C320.827 48.0874 320.653 47.5094 320.594 46.8358C320.535 46.1566 320.607 45.5529 320.809 45.0249C321.014 44.4967 321.325 44.0733 321.742 43.7547C322.162 43.4359 322.667 43.251 323.255 43.1999C323.844 43.1487 324.371 43.2441 324.837 43.4859C325.306 43.7275 325.685 44.091 325.976 44.5762C326.269 45.0612 326.445 45.6433 326.504 46.3226C326.562 46.9962 326.489 47.5957 326.283 48.1211C326.081 48.6463 325.77 49.0682 325.35 49.387C324.933 49.7056 324.43 49.8904 323.841 49.9415ZM323.763 49.0415C324.21 49.0027 324.568 48.8561 324.837 48.6018C325.105 48.3474 325.293 48.0275 325.399 47.6418C325.505 47.2562 325.54 46.8454 325.502 46.4096C325.464 45.9737 325.359 45.5736 325.188 45.2092C325.017 44.8448 324.776 44.5591 324.468 44.3521C324.159 44.1451 323.781 44.061 323.334 44.0999C322.886 44.1387 322.529 44.2867 322.26 44.5439C321.991 44.801 321.804 45.1238 321.698 45.5123C321.592 45.9008 321.558 46.3129 321.596 46.7488C321.634 47.1847 321.738 47.5834 321.909 47.9449C322.081 48.3065 322.32 48.5893 322.629 48.7935C322.938 48.9977 323.316 49.0803 323.763 49.0415ZM328.074 49.437L327.508 42.9161L328.476 42.832L328.564 43.8509L328.649 43.8435C328.755 43.4836 328.951 43.1943 329.237 42.9755C329.523 42.7539 329.878 42.6247 330.302 42.5878C330.733 42.5505 331.099 42.617 331.402 42.7875C331.707 42.9549 331.956 43.2056 332.147 43.5397L332.215 43.5338C332.353 43.1825 332.58 42.8933 332.897 42.6662C333.214 42.4362 333.605 42.301 334.072 42.2604C334.655 42.2098 335.148 42.3509 335.551 42.6838C335.953 43.0139 336.187 43.5624 336.254 44.3294L336.633 48.6937L335.631 48.7807L335.252 44.4164C335.21 43.9353 335.049 43.6028 334.768 43.4191C334.486 43.2353 334.167 43.1589 333.811 43.1899C333.352 43.2297 333.009 43.3993 332.781 43.6985C332.553 43.9949 332.458 44.354 332.494 44.7757L332.863 49.0211L331.844 49.1096L331.456 44.6434C331.424 44.2727 331.278 43.9845 331.018 43.779C330.757 43.5706 330.437 43.4829 330.058 43.5159C329.798 43.5385 329.56 43.629 329.346 43.7873C329.134 43.9454 328.97 44.1536 328.853 44.4119C328.738 44.6671 328.694 44.9546 328.722 45.2744L329.076 49.35L328.074 49.437ZM338.226 48.5553L337.659 42.0344L338.627 41.9504L338.716 42.9692L338.801 42.9619C338.906 42.6019 339.102 42.3126 339.388 42.0938C339.674 41.8723 340.029 41.743 340.454 41.7062C340.884 41.6688 341.251 41.7353 341.553 41.9058C341.859 42.0732 342.107 42.3239 342.299 42.658L342.367 42.6521C342.505 42.3008 342.732 42.0116 343.049 41.7845C343.365 41.5546 343.757 41.4193 344.224 41.3787C344.807 41.3281 345.3 41.4692 345.702 41.8021C346.104 42.1322 346.339 42.6807 346.405 43.4477L346.784 47.812L345.782 47.899L345.403 43.5348C345.362 43.0536 345.2 42.7212 344.919 42.5374C344.638 42.3537 344.319 42.2773 343.962 42.3083C343.504 42.3481 343.161 42.5176 342.933 42.8169C342.705 43.1133 342.609 43.4723 342.646 43.894L343.014 48.1394L341.996 48.2279L341.608 43.7618C341.575 43.391 341.429 43.1029 341.169 42.8973C340.909 42.689 340.589 42.6013 340.209 42.6342C339.949 42.6568 339.712 42.7473 339.497 42.9056C339.286 43.0637 339.121 43.2719 339.004 43.5302C338.889 43.7854 338.846 44.0729 338.874 44.3927L339.228 48.4683L338.226 48.5553ZM350.309 47.6598C349.896 47.6957 349.514 47.6505 349.164 47.524C348.813 47.3948 348.526 47.1902 348.302 46.9102C348.078 46.6274 347.948 46.2738 347.911 45.8492C347.878 45.4756 347.926 45.1664 348.053 44.9215C348.179 44.6738 348.36 44.4728 348.595 44.3184C348.829 44.164 349.093 44.0413 349.384 43.9504C349.678 43.8564 349.975 43.7765 350.274 43.7106C350.666 43.6252 350.984 43.5591 351.228 43.5122C351.475 43.4623 351.652 43.3999 351.759 43.3249C351.87 43.2498 351.918 43.1315 351.904 42.9702L351.901 42.9362C351.865 42.5173 351.722 42.2018 351.472 41.9897C351.226 41.7772 350.872 41.6911 350.41 41.7311C349.932 41.7727 349.566 41.91 349.313 42.143C349.059 42.376 348.887 42.6162 348.798 42.8635L347.817 42.6065C347.953 42.1955 348.152 41.8674 348.416 41.622C348.683 41.3736 348.98 41.1909 349.31 41.0739C349.641 40.9538 349.971 40.8796 350.3 40.851C350.509 40.8329 350.752 40.8374 351.028 40.8648C351.307 40.889 351.58 40.9665 351.848 41.0972C352.119 41.2277 352.353 41.4398 352.549 41.7336C352.746 42.0273 352.867 42.4332 352.912 42.9511L353.285 47.2474L352.283 47.3344L352.206 46.4514L352.155 46.4558C352.1 46.6032 352 46.7645 351.855 46.9396C351.711 47.1147 351.512 47.2703 351.258 47.4063C351.005 47.5424 350.689 47.6269 350.309 47.6598ZM350.384 46.7465C350.78 46.7121 351.107 46.6053 351.366 46.426C351.627 46.2465 351.816 46.0276 351.933 45.7694C352.053 45.5108 352.101 45.2457 352.078 44.974L351.998 44.057C351.96 44.1116 351.871 44.1665 351.73 44.2214C351.592 44.2734 351.431 44.323 351.247 44.3703C351.065 44.4146 350.888 44.4557 350.714 44.4936C350.544 44.5284 350.405 44.5575 350.299 44.581C350.041 44.6376 349.803 44.7139 349.583 44.81C349.366 44.903 349.194 45.0306 349.068 45.1926C348.945 45.3516 348.895 45.5584 348.917 45.8131C348.947 46.1613 349.099 46.4133 349.372 46.5692C349.648 46.7221 349.985 46.7812 350.384 46.7465ZM355.536 43.0996L355.876 47.0224L354.874 47.1094L354.308 40.5885L355.276 40.5044L355.364 41.5233L355.449 41.5159C355.573 41.1715 355.782 40.8853 356.076 40.6573C356.37 40.4265 356.763 40.2897 357.255 40.2469C357.697 40.2086 358.091 40.2656 358.438 40.418C358.785 40.5675 359.066 40.8169 359.281 41.166C359.497 41.5123 359.629 41.9628 359.677 42.5175L360.037 46.661L359.035 46.748L358.681 42.6725C358.636 42.1602 358.469 41.7727 358.178 41.5099C357.887 41.2443 357.509 41.1317 357.045 41.172C356.725 41.1998 356.445 41.294 356.205 41.4545C355.968 41.6148 355.789 41.8343 355.668 42.1129C355.547 42.3914 355.503 42.7204 355.536 43.0996ZM364.103 46.4448C363.559 46.492 363.068 46.3964 362.628 46.158C362.188 45.9167 361.828 45.5544 361.549 45.071C361.271 44.5848 361.101 43.9964 361.041 43.3058C360.982 42.6209 361.047 42.0164 361.239 41.4922C361.43 40.968 361.723 40.5504 362.118 40.2395C362.513 39.9286 362.985 39.7493 363.534 39.7016C363.959 39.6648 364.3 39.7064 364.559 39.8265C364.82 39.9436 365.023 40.0856 365.169 40.2526C365.317 40.4165 365.433 40.5519 365.516 40.6587L365.601 40.6513L365.323 37.4418L366.324 37.3548L367.08 46.0493L366.112 46.1334L366.025 45.1315L365.906 45.1418C365.842 45.2671 365.751 45.4262 365.631 45.6191C365.51 45.8092 365.33 45.986 365.091 46.1494C364.851 46.3099 364.521 46.4084 364.103 46.4448ZM364.16 45.5329C364.562 45.498 364.893 45.3638 365.152 45.1303C365.411 44.8939 365.596 44.5827 365.708 44.1966C365.82 43.8076 365.854 43.3669 365.811 42.8744C365.769 42.3876 365.661 41.9678 365.488 41.615C365.315 41.2594 365.08 40.9917 364.785 40.812C364.49 40.6295 364.139 40.5559 363.731 40.5913C363.307 40.6282 362.962 40.7679 362.698 41.0104C362.437 41.2498 362.251 41.5611 362.142 41.9441C362.035 42.3241 362.002 42.7433 362.042 43.2018C362.082 43.666 362.189 44.0816 362.364 44.4485C362.541 44.8124 362.779 45.094 363.079 45.2932C363.381 45.4894 363.741 45.5693 364.16 45.5329Z" fill="#667185"/>
<path d="M328.59 106.941C325.961 107.17 323.647 106.444 321.647 104.763C319.646 103.083 318.532 100.928 318.304 98.2989L316.66 79.3702C316.432 76.7412 317.158 74.4266 318.838 72.4265C320.519 70.4264 322.673 69.3122 325.302 69.0838C327.931 68.8555 330.246 69.5816 332.246 71.262C334.246 72.9425 335.36 75.0972 335.589 77.7262L337.233 96.655C337.461 99.284 336.735 101.599 335.054 103.599C333.374 105.599 331.219 106.713 328.59 106.941ZM327.079 126.144L326.511 119.598C321.614 119.334 317.296 117.643 313.556 114.525C309.816 111.406 307.365 107.434 306.202 102.608C306.019 101.723 306.19 100.94 306.713 100.259C307.237 99.578 307.946 99.1986 308.84 99.1209C309.733 99.0433 310.51 99.281 311.168 99.8342C311.826 100.387 312.298 101.101 312.584 101.974C313.64 105.591 315.73 108.456 318.855 110.568C321.979 112.681 325.407 113.575 329.138 113.251C332.924 112.922 336.159 111.436 338.843 108.794C341.527 106.151 343.08 102.983 343.501 99.2892C343.633 98.377 343.976 97.5929 344.53 96.9366C345.083 96.2804 345.805 95.9125 346.697 95.833C347.589 95.7534 348.352 96.005 348.988 96.5876C349.623 97.1703 349.926 97.9121 349.896 98.8132C349.576 103.662 347.857 107.97 344.741 111.737C341.625 115.504 337.651 117.942 332.821 119.05L333.389 125.596C333.467 126.49 333.229 127.266 332.676 127.924C332.123 128.583 331.4 128.95 330.508 129.025C329.616 129.1 328.841 128.862 328.183 128.311C327.525 127.76 327.157 127.038 327.079 126.144Z" fill="#D42620"/>
</g>
<g filter="url(#filter2_d_98_1402)">
<rect x="397.384" y="12.7752" width="131.022" height="131.022" rx="20" transform="rotate(7.46209 397.384 12.7752)" fill="white"/>
<path d="M410.077 35.8292L410.198 34.8996L416.688 35.7497L416.567 36.6792L413.846 36.3228L412.834 44.0466L411.786 43.9094L412.798 36.1856L410.077 35.8292ZM416.125 44.4777L416.975 37.9877L417.939 38.1138L417.81 39.0941L417.878 39.103C418.038 38.7973 418.286 38.5648 418.622 38.4054C418.958 38.246 419.321 38.1917 419.71 38.2427C419.783 38.2523 419.874 38.2657 419.984 38.2829C420.093 38.3001 420.176 38.3152 420.231 38.3282L420.098 39.3423C420.066 39.3294 419.99 39.3066 419.871 39.2738C419.755 39.2386 419.631 39.2123 419.499 39.195C419.183 39.1536 418.893 39.1829 418.628 39.2829C418.366 39.3803 418.148 39.5352 417.974 39.7473C417.803 39.957 417.699 40.2084 417.66 40.5013L417.122 44.6083L416.125 44.4777ZM422.204 45.4286C421.793 45.3748 421.43 45.2484 421.115 45.0496C420.8 44.8479 420.564 44.5863 420.405 44.2647C420.247 43.9403 420.196 43.5668 420.251 43.1443C420.3 42.7725 420.413 42.4807 420.589 42.2689C420.766 42.0543 420.986 41.8968 421.249 41.7965C421.511 41.6962 421.794 41.633 422.099 41.607C422.406 41.5785 422.713 41.5643 423.02 41.5643C423.421 41.5653 423.745 41.5691 423.994 41.5759C424.245 41.5802 424.432 41.5573 424.553 41.5073C424.677 41.4576 424.749 41.3525 424.77 41.1919L424.775 41.1581C424.829 40.7412 424.758 40.4024 424.56 40.1415C424.365 39.881 424.038 39.7207 423.578 39.6605C423.102 39.5982 422.716 39.6535 422.418 39.8266C422.12 39.9996 421.901 40.1972 421.76 40.4194L420.858 39.9574C421.078 39.5852 421.344 39.3077 421.654 39.1249C421.968 38.9396 422.298 38.8253 422.645 38.7819C422.995 38.736 423.333 38.7345 423.66 38.7773C423.868 38.8046 424.104 38.8613 424.368 38.9474C424.635 39.0311 424.885 39.1656 425.119 39.3509C425.355 39.5366 425.538 39.794 425.667 40.1232C425.796 40.4523 425.826 40.8747 425.759 41.3901L425.199 45.6661L424.201 45.5355L424.317 44.6567L424.266 44.65C424.18 44.782 424.047 44.918 423.869 45.0578C423.69 45.1977 423.462 45.3069 423.185 45.3852C422.909 45.4636 422.582 45.4781 422.204 45.4286ZM422.474 44.5528C422.868 44.6044 423.21 44.5705 423.501 44.451C423.795 44.3319 424.026 44.1588 424.197 43.9318C424.37 43.7052 424.474 43.4567 424.509 43.1863L424.629 42.2736C424.58 42.3188 424.481 42.3531 424.332 42.3765C424.186 42.3975 424.018 42.4113 423.828 42.4179C423.641 42.4221 423.459 42.4241 423.281 42.4237C423.107 42.4209 422.965 42.4196 422.856 42.4196C422.592 42.4195 422.343 42.4427 422.108 42.4892C421.876 42.5333 421.681 42.621 421.523 42.7522C421.369 42.881 421.275 43.0721 421.242 43.3256C421.196 43.6721 421.29 43.9508 421.523 44.1619C421.76 44.3705 422.076 44.5008 422.474 44.5528ZM428.289 42.0998L427.778 46.004L426.781 45.8733L427.631 39.3833L428.594 39.5095L428.461 40.5236L428.546 40.5346C428.741 40.225 429.007 39.9905 429.343 39.831C429.679 39.6688 430.092 39.6198 430.583 39.684C431.022 39.7416 431.395 39.8821 431.701 40.1055C432.007 40.3261 432.228 40.6301 432.363 41.0175C432.499 41.402 432.531 41.8703 432.459 42.4224L431.919 46.5463L430.921 46.4157L431.453 42.3594C431.519 41.8496 431.439 41.4351 431.212 41.1159C430.984 40.7939 430.64 40.6026 430.178 40.5421C429.86 40.5004 429.566 40.5322 429.297 40.6374C429.031 40.7429 428.809 40.9187 428.631 41.1647C428.453 41.4106 428.339 41.7223 428.289 42.0998ZM438.76 42.3194L437.831 42.4556C437.794 42.2989 437.73 42.143 437.638 41.9877C437.55 41.8301 437.419 41.6926 437.245 41.5753C437.072 41.458 436.84 41.3803 436.55 41.3423C436.152 41.2903 435.809 41.3385 435.521 41.4869C435.235 41.6328 435.074 41.8453 435.037 42.1241C435.005 42.372 435.07 42.5796 435.231 42.7469C435.392 42.9141 435.658 43.0707 436.029 43.2167L436.961 43.5795C437.523 43.7963 437.927 44.0685 438.174 44.3959C438.421 44.7204 438.514 45.1095 438.455 45.563C438.406 45.9348 438.256 46.2532 438.003 46.5181C437.754 46.7834 437.428 46.9756 437.025 47.0948C436.623 47.214 436.17 47.2406 435.665 47.1746C435.003 47.0879 434.474 46.8725 434.078 46.5283C433.682 46.1842 433.462 45.7285 433.419 45.1613L434.397 45.0486C434.441 45.4097 434.577 45.694 434.805 45.9015C435.036 46.1093 435.355 46.24 435.764 46.2935C436.228 46.3544 436.61 46.3041 436.909 46.1427C437.212 45.9789 437.381 45.7575 437.417 45.4787C437.447 45.2533 437.393 45.0543 437.255 44.8815C437.118 44.7059 436.89 44.5587 436.574 44.4398L435.525 44.0446C434.949 43.826 434.541 43.5505 434.301 43.2182C434.064 42.8834 433.975 42.4921 434.034 42.0442C434.082 41.678 434.227 41.3676 434.469 41.1128C434.715 40.8584 435.027 40.6744 435.406 40.5607C435.787 40.4474 436.206 40.4206 436.662 40.4803C437.305 40.5645 437.79 40.7713 438.12 41.101C438.452 41.431 438.665 41.8371 438.76 42.3194ZM439.162 49.9706L440.331 41.0468L441.295 41.173L441.16 42.204L441.278 42.2195C441.366 42.1164 441.486 41.986 441.639 41.8284C441.794 41.6682 442.004 41.5352 442.267 41.4293C442.533 41.3209 442.878 41.2944 443.3 41.3497C443.847 41.4213 444.31 41.621 444.691 41.9489C445.073 42.2767 445.347 42.7066 445.515 43.2386C445.683 43.7707 445.723 44.3775 445.634 45.0592C445.544 45.7465 445.349 46.327 445.049 46.8006C444.749 47.2713 444.374 47.6176 443.924 47.8394C443.474 48.0584 442.979 48.1325 442.438 48.0617C442.021 48.0071 441.696 47.8943 441.464 47.7235C441.232 47.5498 441.059 47.3654 440.948 47.1702C440.836 46.9722 440.751 46.8093 440.694 46.6814L440.609 46.6703L440.16 50.1012L439.162 49.9706ZM440.887 44.4202C440.822 44.9104 440.838 45.3522 440.932 45.7456C441.027 46.1363 441.199 46.4553 441.447 46.7027C441.696 46.9473 442.02 47.0958 442.42 47.1482C442.837 47.2028 443.199 47.1385 443.507 46.9553C443.818 46.7697 444.068 46.4988 444.258 46.1426C444.451 45.7839 444.578 45.3736 444.639 44.9117C444.698 44.4554 444.682 44.0349 444.589 43.6502C444.499 43.2631 444.328 42.9441 444.074 42.6931C443.823 42.4397 443.487 42.2853 443.064 42.23C442.659 42.1769 442.304 42.235 442.002 42.4045C441.699 42.5712 441.453 42.8284 441.264 43.1761C441.076 43.521 440.95 43.9357 440.887 44.4202ZM449.113 48.9359C448.527 48.8592 448.031 48.6524 447.625 48.3156C447.222 47.9792 446.93 47.544 446.748 47.0102C446.568 46.4767 446.522 45.8747 446.61 45.2043C446.699 44.5283 446.899 43.9542 447.21 43.4821C447.524 43.0103 447.919 42.6638 448.395 42.4425C448.873 42.2215 449.406 42.1494 449.992 42.2262C450.577 42.3029 451.072 42.5095 451.475 42.8459C451.88 43.1827 452.173 43.6193 452.352 44.1556C452.534 44.6923 452.58 45.2986 452.492 45.9747C452.404 46.6451 452.203 47.2148 451.89 47.6837C451.579 48.153 451.184 48.4981 450.705 48.7191C450.23 48.9404 449.699 49.0127 449.113 48.9359ZM449.23 48.0402C449.675 48.0984 450.056 48.0323 450.373 47.8418C450.691 47.6513 450.943 47.3791 451.129 47.0254C451.316 46.6716 451.438 46.2779 451.495 45.8441C451.551 45.4103 451.535 44.997 451.446 44.6043C451.357 44.2116 451.184 43.8809 450.927 43.6123C450.67 43.3437 450.319 43.1802 449.874 43.1219C449.429 43.0636 449.048 43.1312 448.73 43.3245C448.413 43.5179 448.16 43.7928 447.973 44.1494C447.786 44.5059 447.664 44.9011 447.607 45.3349C447.551 45.7687 447.567 46.1806 447.656 46.5705C447.745 46.9604 447.919 47.2882 448.176 47.554C448.434 47.8198 448.785 47.9819 449.23 48.0402ZM453.355 49.3541L454.205 42.8641L455.169 42.9902L455.04 43.9705L455.108 43.9794C455.268 43.6737 455.517 43.4412 455.853 43.2818C456.189 43.1224 456.551 43.0682 456.94 43.1191C457.013 43.1287 457.104 43.1421 457.214 43.1593C457.323 43.1765 457.406 43.1916 457.462 43.2046L457.329 44.2187C457.296 44.2058 457.22 44.183 457.101 44.1502C456.986 44.115 456.862 44.0887 456.729 44.0714C456.414 44.03 456.123 44.0593 455.858 44.1593C455.596 44.2567 455.378 44.4116 455.204 44.6237C455.033 44.8334 454.929 45.0848 454.89 45.3777L454.353 49.4847L453.355 49.3541ZM461.624 43.8357L461.513 44.6808L458.15 44.2402L458.26 43.3952L461.624 43.8357ZM459.444 41.9687L460.441 42.0993L459.631 48.2851C459.594 48.5668 459.608 48.7834 459.671 48.9349C459.737 49.084 459.832 49.191 459.955 49.2558C460.082 49.3183 460.218 49.3591 460.365 49.3782C460.475 49.3926 460.566 49.3988 460.637 49.3968C460.71 49.3919 460.768 49.388 460.811 49.3851L460.896 50.3074C460.825 50.3239 460.728 50.3369 460.603 50.3464C460.478 50.3587 460.323 50.3527 460.137 50.3283C459.856 50.2914 459.587 50.1947 459.333 50.0382C459.081 49.882 458.883 49.6683 458.738 49.3972C458.596 49.1265 458.549 48.8023 458.599 48.4249L459.444 41.9687ZM465.279 50.9159L466.413 42.2625L469.438 42.6588C470.041 42.7377 470.524 42.9071 470.889 43.1668C471.253 43.4237 471.508 43.7394 471.654 44.1137C471.8 44.4853 471.846 44.8823 471.79 45.3049C471.742 45.6767 471.635 45.9751 471.471 46.2C471.31 46.4252 471.113 46.5943 470.88 46.7071C470.651 46.8203 470.407 46.8944 470.151 46.9295L470.14 47.014C470.402 47.0656 470.656 47.1935 470.902 47.3975C471.147 47.6016 471.339 47.8732 471.478 48.2123C471.617 48.5514 471.657 48.9491 471.597 49.4054C471.54 49.8392 471.391 50.2164 471.148 50.5371C470.906 50.8577 470.558 51.0916 470.106 51.2387C469.654 51.3858 469.088 51.4147 468.406 51.3254L465.279 50.9159ZM466.449 50.1236L468.528 50.3958C469.212 50.4855 469.715 50.4168 470.037 50.1896C470.363 49.96 470.55 49.6551 470.6 49.2748C470.638 48.9818 470.599 48.7016 470.482 48.4342C470.366 48.164 470.179 47.9361 469.923 47.7507C469.667 47.5624 469.35 47.4435 468.972 47.3941L466.843 47.1152L466.449 50.1236ZM466.962 46.2025L468.906 46.4571C469.222 46.4984 469.514 46.4737 469.784 46.383C470.057 46.2926 470.282 46.1445 470.461 45.9387C470.643 45.7333 470.753 45.4785 470.793 45.1743C470.843 44.794 470.753 44.4541 470.523 44.1546C470.293 43.8524 469.891 43.6636 469.316 43.5883L467.339 43.3293L466.962 46.2025ZM475.264 52.3611C474.678 52.2844 474.182 52.0776 473.776 51.7408C473.373 51.4044 473.081 50.9693 472.898 50.4354C472.719 49.9019 472.673 49.2999 472.761 48.6295C472.85 47.9535 473.049 47.3794 473.361 46.9073C473.674 46.4355 474.069 46.089 474.545 45.8677C475.024 45.6468 475.556 45.5747 476.142 45.6514C476.728 45.7281 477.223 45.9347 477.626 46.2712C478.031 46.6079 478.324 47.0445 478.503 47.5808C478.685 48.1175 478.731 48.7239 478.643 49.3999C478.555 50.0703 478.354 50.64 478.041 51.1089C477.73 51.5782 477.335 51.9233 476.856 52.1443C476.38 52.3656 475.849 52.4379 475.264 52.3611ZM475.381 51.4654C475.826 51.5237 476.207 51.4576 476.524 51.267C476.841 51.0765 477.093 50.8044 477.28 50.4506C477.467 50.0969 477.589 49.7031 477.646 49.2693C477.702 48.8355 477.686 48.4222 477.597 48.0295C477.508 47.6368 477.335 47.3061 477.078 47.0375C476.821 46.7689 476.47 46.6055 476.025 46.5472C475.58 46.4889 475.199 46.5564 474.881 46.7497C474.564 46.9431 474.311 47.218 474.124 47.5746C473.937 47.9312 473.815 48.3264 473.758 48.7601C473.701 49.1939 473.718 49.6058 473.807 49.9957C473.896 50.3856 474.07 50.7134 474.327 50.9792C474.585 51.245 474.936 51.4071 475.381 51.4654ZM482.125 53.2599C481.539 53.1831 481.043 52.9764 480.638 52.6396C480.235 52.3031 479.942 51.868 479.76 51.3341C479.581 50.8006 479.535 50.1987 479.623 49.5283C479.711 48.8522 479.911 48.2781 480.222 47.806C480.536 47.3343 480.931 46.9877 481.407 46.7664C481.886 46.5455 482.418 46.4734 483.004 46.5501C483.59 46.6269 484.084 46.8334 484.487 47.1699C484.893 47.5067 485.185 47.9432 485.364 48.4795C485.546 49.0162 485.593 49.6226 485.504 50.2986C485.416 50.969 485.216 51.5387 484.902 52.0076C484.591 52.4769 484.197 52.8221 483.718 53.043C483.242 53.2643 482.711 53.3366 482.125 53.2599ZM482.242 52.3641C482.688 52.4224 483.069 52.3563 483.386 52.1657C483.703 51.9752 483.955 51.7031 484.142 51.3493C484.328 50.9956 484.45 50.6018 484.507 50.168C484.564 49.7342 484.548 49.321 484.459 48.9282C484.37 48.5355 484.197 48.2049 483.94 47.9362C483.683 47.6676 483.332 47.5042 482.887 47.4459C482.442 47.3876 482.06 47.4551 481.743 47.6485C481.425 47.8418 481.173 48.1168 480.986 48.4733C480.799 48.8299 480.677 49.2251 480.62 49.6589C480.563 50.0927 480.579 50.5045 480.669 50.8944C480.758 51.2843 480.931 51.6122 481.189 51.878C481.446 52.1438 481.797 52.3058 482.242 52.3641ZM487.607 51.4336L487.752 50.1976L487.955 50.2242L491.173 47.706L492.406 47.8676L488.981 50.5305L488.896 50.5194L487.607 51.4336ZM486.368 53.678L487.501 45.0247L488.498 45.1553L487.365 53.8086L486.368 53.678ZM490.492 54.2182L488.377 50.6749L489.178 50.0749L491.759 54.3842L490.492 54.2182ZM492.602 54.4946L493.452 48.0046L494.449 48.1352L493.599 54.6252L492.602 54.4946ZM494.101 46.9893C493.906 46.9638 493.747 46.8757 493.624 46.7248C493.503 46.5744 493.455 46.4062 493.479 46.2203C493.504 46.0344 493.594 45.8843 493.749 45.7699C493.907 45.656 494.083 45.6117 494.278 45.6372C494.472 45.6627 494.63 45.7506 494.75 45.9011C494.874 46.0519 494.923 46.2203 494.899 46.4062C494.875 46.5921 494.783 46.7421 494.625 46.856C494.47 46.9703 494.295 47.0148 494.101 46.9893ZM496.696 51.0597L496.185 54.9638L495.187 54.8332L496.038 48.3432L497.001 48.4694L496.868 49.4835L496.953 49.4945C497.148 49.1849 497.414 48.9503 497.75 48.7909C498.086 48.6287 498.499 48.5797 498.989 48.6439C499.429 48.7014 499.802 48.8419 500.107 49.0654C500.414 49.286 500.635 49.59 500.77 49.9774C500.906 50.3619 500.938 50.8302 500.866 51.3823L500.325 55.5062L499.328 55.3756L499.86 51.3193C499.926 50.8095 499.846 50.395 499.618 50.0758C499.391 49.7538 499.047 49.5625 498.585 49.502C498.266 49.4603 497.973 49.4921 497.704 49.5973C497.438 49.7028 497.216 49.8786 497.038 50.1245C496.859 50.3705 496.745 50.6822 496.696 51.0597ZM504.193 58.6258C503.711 58.5627 503.305 58.4465 502.975 58.2772C502.644 58.1107 502.377 57.9123 502.172 57.682C501.969 57.455 501.815 57.2199 501.71 56.9768L502.577 56.5232C502.652 56.6533 502.748 56.8034 502.866 56.9736C502.984 57.1466 503.155 57.3051 503.38 57.4492C503.607 57.5964 503.916 57.6956 504.308 57.7469C504.832 57.8155 505.281 57.7454 505.655 57.5366C506.029 57.3277 506.251 56.9528 506.322 56.412L506.495 55.0937L506.41 55.0826C506.322 55.1913 506.198 55.3242 506.04 55.4811C505.885 55.6356 505.674 55.764 505.405 55.8664C505.14 55.9663 504.796 55.9886 504.374 55.9333C503.85 55.8646 503.395 55.6791 503.011 55.3766C502.629 55.0745 502.348 54.6709 502.168 54.166C501.991 53.6614 501.946 53.0711 502.035 52.395C502.122 51.7303 502.315 51.1667 502.613 50.7044C502.912 50.2392 503.287 49.8988 503.74 49.6829C504.192 49.4643 504.692 49.3908 505.238 49.4624C505.661 49.5177 505.987 49.632 506.216 49.8053C506.449 49.9762 506.62 50.159 506.729 50.3538C506.841 50.5462 506.927 50.7035 506.985 50.8258L507.087 50.8391L507.222 49.8081L508.185 49.9343L507.31 56.6102C507.237 57.1679 507.051 57.6048 506.752 57.9209C506.455 58.2402 506.083 58.4537 505.637 58.5613C505.192 58.6722 504.711 58.6937 504.193 58.6258ZM504.626 55.0552C505.026 55.1076 505.376 55.0603 505.676 54.9134C505.976 54.7665 506.22 54.5306 506.409 54.2057C506.598 53.8809 506.724 53.479 506.786 53.0002C506.847 52.5326 506.831 52.1107 506.737 51.7345C506.643 51.3583 506.471 51.0507 506.222 50.8118C505.972 50.5728 505.645 50.4267 505.239 50.3736C504.817 50.3183 504.451 50.3792 504.141 50.5564C503.834 50.7339 503.586 50.9938 503.398 51.3359C503.213 51.6784 503.092 52.0693 503.034 52.5087C502.975 52.9594 502.993 53.3672 503.089 53.7322C503.187 54.0946 503.363 54.3927 503.616 54.6264C503.873 54.8577 504.209 55.0006 504.626 55.0552Z" fill="#667185"/>
<path fill-rule="evenodd" clip-rule="evenodd" d="M466.662 81.1851C468.434 81.4173 470.107 82.1383 471.492 83.2673C472.877 84.3963 473.921 85.8887 474.506 87.5774L477.761 96.9699C478.579 96.7535 479.387 96.5099 480.186 96.2392C480.991 95.961 481.873 96.0138 482.638 96.3859C483.404 96.758 483.99 97.4191 484.269 98.2236C484.547 99.0281 484.494 99.9101 484.122 100.676C483.75 101.441 483.089 102.028 482.284 102.306C481.475 102.546 480.663 102.776 479.848 102.996L482.104 109.514C482.594 110.928 482.747 112.436 482.553 113.919L481.5 121.957C481.324 123.3 480.867 124.591 480.158 125.745C479.449 126.898 478.505 127.89 477.387 128.654L476.86 132.675C476.695 133.94 476.033 135.088 475.021 135.866C474.009 136.644 472.729 136.987 471.464 136.822C470.198 136.656 469.05 135.994 468.273 134.982C467.495 133.97 467.151 132.69 467.317 131.425L467.525 129.834L429.351 124.834L429.143 126.425C428.977 127.69 428.315 128.838 427.303 129.616C426.291 130.394 425.012 130.737 423.746 130.572C422.481 130.406 421.333 129.744 420.555 128.732C419.777 127.72 419.434 126.44 419.599 125.175L420.126 121.154C418.402 119.148 417.507 116.449 417.877 113.624L418.93 105.582C419.124 104.101 419.661 102.686 420.497 101.448L424.324 95.7757C423.598 95.3528 422.885 94.9067 422.185 94.4375C421.484 93.9571 421 93.2203 420.837 92.3861C420.674 91.5518 420.845 90.6869 421.314 89.9777C421.549 89.6282 421.851 89.3284 422.203 89.0957C422.554 88.863 422.948 88.7018 423.362 88.6214C423.776 88.5409 424.201 88.5428 424.614 88.627C425.027 88.7111 425.42 88.8758 425.769 89.1117C426.474 89.5815 427.192 90.025 427.925 90.4424L433.488 82.2081C434.488 80.7264 435.881 79.5524 437.51 78.8177C439.14 78.0831 440.942 77.8167 442.714 78.0485L466.662 81.1851ZM436.623 106.372C435.357 106.207 434.078 106.55 433.066 107.328C432.054 108.106 431.392 109.253 431.226 110.519C431.06 111.785 431.404 113.064 432.182 114.076C432.96 115.088 434.107 115.75 435.373 115.916C436.639 116.082 437.918 115.738 438.93 114.96C439.942 114.182 440.604 113.035 440.77 111.769C440.935 110.503 440.592 109.224 439.814 108.212C439.036 107.2 437.889 106.538 436.623 106.372ZM465.253 110.122C463.988 109.957 462.708 110.3 461.696 111.078C460.684 111.856 460.022 113.003 459.857 114.269C459.691 115.535 460.035 116.814 460.812 117.826C461.59 118.838 462.738 119.5 464.003 119.666C465.269 119.832 466.549 119.488 467.561 118.71C468.573 117.932 469.234 116.785 469.4 115.519C469.566 114.253 469.222 112.974 468.445 111.962C467.667 110.95 466.519 110.288 465.253 110.122ZM465.829 87.5475L441.881 84.4108C441.357 84.3421 440.825 84.4038 440.331 84.5903C439.837 84.7767 439.396 85.0823 439.049 85.4798L438.807 85.7975L433.709 93.3421C438.44 95.4632 444.891 97.7479 452.188 98.7038C459.002 99.5963 465.396 99.1782 470.375 98.4423L471.422 98.2817L468.442 89.6792C468.27 89.1803 467.976 88.7317 467.589 88.3733C467.201 88.0149 466.731 87.7578 466.22 87.6246L465.832 87.5479L465.829 87.5475Z" fill="#0F973D"/>
</g>
<g filter="url(#filter3_d_98_1402)">
<g clip-path="url(#clip1_98_1402)">
<rect x="154.735" y="9.68784" width="131.022" height="131.022" rx="20" transform="rotate(10.718 154.735 9.68784)" fill="white"/>
<path d="M274.118 29.3712C271.278 28.4684 266.905 28.9703 264.895 30.4394C268.126 40.5331 271.531 46.3742 280.093 52.497C282.103 51.0279 284.817 46.9933 284.819 44.0129C284.822 41.0325 283.695 37.8155 281.689 35.0696C279.682 32.3238 276.959 30.274 274.118 29.3712Z" fill="#1671D9"/>
<path d="M172.976 34.7273L173.15 33.8061L179.581 35.0234L179.407 35.9446L176.711 35.4342L175.262 43.0881L174.223 42.8915L175.672 35.2377L172.976 34.7273ZM178.523 43.7054L179.741 37.2741L180.695 37.4548L180.511 38.4262L180.578 38.4389C180.756 38.1429 181.017 37.9248 181.361 37.7847C181.706 37.6447 182.071 37.6111 182.456 37.684C182.529 37.6977 182.619 37.7163 182.727 37.7397C182.836 37.7631 182.917 37.7829 182.972 37.799L182.782 38.8039C182.75 38.7892 182.675 38.7621 182.559 38.7226C182.445 38.6809 182.323 38.6476 182.192 38.6228C181.879 38.5636 181.587 38.5764 181.317 38.6611C181.05 38.7435 180.823 38.8857 180.638 39.0877C180.455 39.2873 180.337 39.5323 180.282 39.8226L179.511 43.8924L178.523 43.7054ZM184.538 45.0001C184.131 44.9229 183.775 44.7761 183.472 44.5597C183.17 44.3406 182.949 44.0659 182.809 43.7359C182.669 43.403 182.639 43.0272 182.718 42.6085C182.788 42.24 182.917 41.9551 183.106 41.7537C183.295 41.5495 183.523 41.4048 183.791 41.3195C184.058 41.2343 184.345 41.1873 184.65 41.1786C184.959 41.1676 185.266 41.1708 185.572 41.1883C185.972 41.212 186.296 41.2343 186.544 41.2552C186.795 41.2737 186.982 41.2615 187.106 41.2184C187.233 41.1759 187.311 41.0751 187.341 40.916L187.347 40.8825C187.426 40.4693 187.373 40.1269 187.191 39.8552C187.011 39.5841 186.693 39.4055 186.238 39.3193C185.766 39.23 185.377 39.2633 185.07 39.4192C184.763 39.575 184.533 39.7599 184.379 39.9737L183.505 39.4612C183.746 39.1021 184.027 38.8402 184.348 38.6753C184.671 38.5081 185.007 38.4127 185.356 38.389C185.708 38.3631 186.046 38.3808 186.369 38.4421C186.576 38.4812 186.809 38.5512 187.067 38.6522C187.329 38.7509 187.571 38.8994 187.794 39.0977C188.019 39.2965 188.187 39.5639 188.297 39.8998C188.407 40.2358 188.413 40.6592 188.317 41.17L187.515 45.4072L186.526 45.2202L186.691 44.3493L186.641 44.3398C186.548 44.4667 186.408 44.5949 186.221 44.7244C186.035 44.8539 185.801 44.95 185.521 45.0125C185.24 45.075 184.912 45.0708 184.538 45.0001ZM184.857 44.1409C185.248 44.2149 185.592 44.2005 185.889 44.0977C186.189 43.9954 186.43 43.8358 186.613 43.6188C186.798 43.4024 186.916 43.1602 186.967 42.8922L187.138 41.9878C187.087 42.0302 186.986 42.0588 186.836 42.0737C186.689 42.0864 186.52 42.0906 186.33 42.0864C186.144 42.08 185.962 42.0716 185.784 42.0612C185.61 42.0485 185.469 42.0391 185.36 42.0329C185.097 42.0178 184.847 42.0268 184.609 42.0599C184.375 42.0908 184.175 42.1672 184.011 42.2893C183.849 42.4091 183.745 42.5946 183.697 42.8458C183.632 43.1891 183.71 43.4727 183.931 43.6967C184.155 43.9184 184.464 44.0664 184.857 44.1409ZM191.67 46.3325C191.067 46.2184 190.574 45.9777 190.193 45.6106C189.811 45.2435 189.551 44.7879 189.411 44.2438C189.271 43.6998 189.262 43.1068 189.383 42.4648C189.507 41.8116 189.736 41.2579 190.071 40.8037C190.408 40.3472 190.82 40.019 191.306 39.8189C191.796 39.6166 192.331 39.5704 192.911 39.6803C193.364 39.7659 193.755 39.9268 194.086 40.163C194.418 40.3991 194.671 40.6899 194.845 41.0352C195.02 41.3805 195.097 41.7594 195.077 42.172L194.089 41.9849C194.069 41.6776 193.95 41.3863 193.734 41.111C193.52 40.8335 193.196 40.6536 192.76 40.5712C192.375 40.4982 192.018 40.5348 191.69 40.6808C191.365 40.8246 191.087 41.0626 190.856 41.3948C190.629 41.7248 190.47 42.1326 190.378 42.6183C190.284 43.1152 190.28 43.5626 190.366 43.9607C190.456 44.3593 190.625 44.6876 190.874 44.9458C191.126 45.2045 191.447 45.3709 191.838 45.4448C192.094 45.4935 192.336 45.4929 192.562 45.4432C192.789 45.3935 192.99 45.2987 193.167 45.1587C193.344 45.0186 193.485 44.8372 193.591 44.6144L194.579 44.8014C194.451 45.1705 194.248 45.4862 193.97 45.7488C193.696 46.009 193.361 46.1944 192.967 46.3049C192.577 46.4131 192.144 46.4223 191.67 46.3325ZM196.798 44.7356L197.012 43.5098L197.213 43.5478L200.569 41.2165L201.792 41.4479L198.22 43.9119L198.136 43.896L196.798 44.7356ZM195.433 46.906L197.056 38.3309L198.044 38.518L196.421 47.093L195.433 46.906ZM199.519 47.6795L197.609 44.0218L198.443 43.4683L200.775 47.9172L199.519 47.6795ZM204.825 48.6837L206.448 40.1086L211.623 41.0882L211.448 42.0093L207.312 41.2263L206.763 44.1237L210.632 44.856L210.458 45.7772L206.589 45.0449L206.037 47.9591L210.241 48.7547L210.067 49.6759L204.825 48.6837ZM213.456 43.6557L214.499 46.5768L216.537 44.239L217.676 44.4545L214.991 47.2771L216.459 50.8858L215.32 50.6702L214.252 47.8831L212.238 50.0869L211.1 49.8714L213.752 47.0425L212.317 43.4401L213.456 43.6557ZM217.177 53.5198L218.85 44.6768L219.805 44.8575L219.612 45.8791L219.729 45.9013C219.823 45.8034 219.95 45.68 220.111 45.5313C220.276 45.3802 220.492 45.2593 220.761 45.1685C221.033 45.0754 221.379 45.0685 221.797 45.1478C222.339 45.2503 222.79 45.476 223.152 45.825C223.514 46.1739 223.764 46.6188 223.902 47.1595C224.039 47.7002 224.044 48.3083 223.916 48.9838C223.787 49.6649 223.56 50.2333 223.234 50.6891C222.908 51.1421 222.514 51.4666 222.052 51.6625C221.59 51.8556 221.091 51.9014 220.555 51.7999C220.142 51.7217 219.825 51.5908 219.602 51.407C219.38 51.2204 219.219 51.0265 219.118 50.8252C219.018 50.6212 218.942 50.4538 218.892 50.3228L218.808 50.3069L218.165 53.7068L217.177 53.5198ZM219.213 48.0763C219.121 48.562 219.111 49.0039 219.183 49.4021C219.256 49.7975 219.409 50.1258 219.643 50.3869C219.878 50.6452 220.193 50.8119 220.59 50.8869C221.003 50.9651 221.368 50.9215 221.686 50.7561C222.006 50.5884 222.272 50.3322 222.482 49.9873C222.695 49.6402 222.845 49.2378 222.931 48.78C223.017 48.3278 223.024 47.9071 222.953 47.5178C222.886 47.1262 222.733 46.798 222.494 46.533C222.258 46.2657 221.931 46.0925 221.512 46.0132C221.11 45.9372 220.753 45.9751 220.441 46.1271C220.129 46.2763 219.869 46.5191 219.661 46.8556C219.453 47.1893 219.304 47.5961 219.213 48.0763ZM227.253 53.0677C226.634 52.9504 226.125 52.7125 225.727 52.3538C225.333 51.993 225.061 51.5425 224.912 51.0025C224.766 50.4602 224.755 49.8597 224.88 49.2009C225.005 48.5421 225.235 47.9843 225.57 47.5272C225.908 47.068 226.32 46.7383 226.806 46.5383C227.296 46.336 227.831 46.2898 228.411 46.3997C228.746 46.4631 229.067 46.5815 229.372 46.755C229.677 46.9285 229.94 47.1662 230.161 47.4681C230.382 47.7673 230.533 48.1371 230.614 48.5775C230.696 49.018 230.68 49.5382 230.566 50.1384L230.487 50.5571L225.529 49.6188L225.691 48.7646L229.644 49.5127C229.712 49.1499 229.701 48.8123 229.61 48.5001C229.521 48.1885 229.36 47.9252 229.126 47.7103C228.895 47.496 228.601 47.355 228.243 47.2873C227.85 47.2128 227.491 47.2461 227.166 47.3871C226.845 47.5258 226.578 47.7355 226.366 48.0163C226.154 48.2971 226.014 48.6147 225.947 48.9692L225.84 49.5387C225.748 50.0244 225.753 50.4519 225.857 50.8214C225.964 51.1886 226.151 51.4886 226.42 51.7215C226.688 51.9517 227.022 52.1045 227.421 52.1801C227.681 52.2292 227.922 52.2373 228.145 52.2043C228.372 52.1691 228.576 52.0921 228.757 51.9732C228.939 51.8515 229.093 51.687 229.219 51.4795L230.123 51.9282C229.962 52.2329 229.739 52.4857 229.455 52.6864C229.172 52.8844 228.843 53.0187 228.468 53.0894C228.094 53.1574 227.689 53.1501 227.253 53.0677ZM232.929 49.9959L232.197 53.8647L231.209 53.6776L232.426 47.2464L233.381 47.4271L233.191 48.4319L233.274 48.4478C233.487 48.1497 233.766 47.9307 234.11 47.7906C234.455 47.6477 234.871 47.6223 235.356 47.7142C235.792 47.7966 236.156 47.9581 236.449 48.1985C236.742 48.4362 236.945 48.7523 237.059 49.1467C237.172 49.5383 237.177 50.0077 237.074 50.5548L236.3 54.6413L235.312 54.4543L236.073 50.4348C236.169 49.9295 236.112 49.5111 235.903 49.1795C235.695 48.8451 235.361 48.6346 234.904 48.548C234.588 48.4883 234.293 48.5033 234.019 48.593C233.747 48.6833 233.516 48.8462 233.324 49.0816C233.132 49.3171 233 49.6218 232.929 49.9959ZM243.37 50.8098L242.435 50.893C242.407 50.7345 242.352 50.5751 242.27 50.415C242.191 50.2525 242.068 50.1078 241.901 49.9808C241.734 49.8539 241.507 49.7632 241.219 49.7087C240.826 49.6342 240.481 49.6629 240.184 49.7947C239.891 49.9242 239.718 50.1271 239.665 50.4034C239.619 50.6491 239.672 50.86 239.823 51.0361C239.975 51.2123 240.232 51.3838 240.593 51.5505L241.504 51.9657C242.052 52.2141 242.44 52.5088 242.668 52.8496C242.896 53.1877 242.967 53.5815 242.882 54.0309C242.812 54.3993 242.644 54.7086 242.377 54.9588C242.113 55.2094 241.776 55.3829 241.368 55.479C240.959 55.5752 240.505 55.576 240.005 55.4814C239.349 55.3572 238.833 55.1121 238.457 54.746C238.082 54.3799 237.888 53.9125 237.877 53.3437L238.859 53.2868C238.883 53.6498 239.003 53.9414 239.219 54.1615C239.437 54.3821 239.749 54.5307 240.154 54.6073C240.614 54.6945 240.998 54.666 241.306 54.5219C241.617 54.3754 241.799 54.1641 241.851 53.8877C241.893 53.6644 241.851 53.4626 241.723 53.2823C241.596 53.0992 241.377 52.9393 241.068 52.8026L240.043 52.3485C239.481 52.0975 239.089 51.7993 238.868 51.4539C238.651 51.1062 238.584 50.7105 238.668 50.2666C238.736 49.9038 238.899 49.602 239.156 49.3615C239.415 49.1214 239.737 48.9554 240.122 48.8634C240.509 48.7719 240.929 48.769 241.381 48.8546C242.018 48.975 242.491 49.2092 242.801 49.557C243.114 49.9053 243.304 50.3229 243.37 50.8098ZM246.466 56.7042C245.846 56.5869 245.337 56.3489 244.94 55.9903C244.545 55.6294 244.274 55.179 244.124 54.6389C243.978 54.0966 243.968 53.4961 244.092 52.8374C244.217 52.1786 244.447 51.6207 244.782 51.1637C245.121 50.7044 245.533 50.3748 246.019 50.1748C246.508 49.9725 247.043 49.9263 247.624 50.0362C247.959 50.0996 248.279 50.218 248.584 50.3915C248.89 50.5649 249.153 50.8026 249.373 51.1046C249.594 51.4037 249.745 51.7735 249.827 52.214C249.908 52.6544 249.892 53.1747 249.778 53.7748L249.699 54.1936L244.742 53.2552L244.903 52.4011L248.856 53.1492C248.925 52.7863 248.913 52.4488 248.822 52.1366C248.734 51.8249 248.572 51.5617 248.338 51.3468C248.107 51.1324 247.813 50.9914 247.456 50.9238C247.062 50.8493 246.703 50.8826 246.379 51.0235C246.057 51.1622 245.791 51.372 245.579 51.6528C245.366 51.9335 245.227 52.2512 245.16 52.6057L245.052 53.1751C244.96 53.6608 244.966 54.0884 245.069 54.4578C245.176 54.825 245.364 55.1251 245.632 55.358C245.901 55.5881 246.235 55.741 246.634 55.8165C246.893 55.8657 247.135 55.8737 247.358 55.8408C247.584 55.8056 247.788 55.7285 247.97 55.6097C248.152 55.488 248.306 55.3234 248.432 55.116L249.336 55.5646C249.174 55.8694 248.951 56.1222 248.667 56.3229C248.384 56.5208 248.055 56.6552 247.68 56.7259C247.306 56.7938 246.901 56.7866 246.466 56.7042ZM255.921 53.1854L254.986 53.2686C254.958 53.1101 254.903 52.9508 254.821 52.7906C254.742 52.6282 254.619 52.4835 254.452 52.3565C254.285 52.2295 254.058 52.1388 253.771 52.0844C253.377 52.0099 253.032 52.0385 252.735 52.1703C252.442 52.2998 252.269 52.5027 252.216 52.7791C252.17 53.0247 252.223 53.2356 252.374 53.4118C252.526 53.588 252.783 53.7594 253.144 53.9262L254.055 54.3413C254.603 54.5898 254.991 54.8844 255.219 55.2253C255.447 55.5633 255.518 55.9571 255.433 56.4065C255.363 56.775 255.195 57.0843 254.928 57.3344C254.664 57.5851 254.327 57.7585 253.919 57.8546C253.51 57.9508 253.056 57.9516 252.556 57.857C251.9 57.7329 251.385 57.4877 251.009 57.1217C250.633 56.7556 250.439 56.2881 250.428 55.7194L251.411 55.6624C251.434 56.0255 251.554 56.317 251.77 56.5371C251.988 56.7577 252.3 56.9063 252.705 56.9829C253.165 57.0701 253.549 57.0416 253.857 56.8975C254.168 56.7511 254.35 56.5397 254.402 56.2634C254.444 56.0401 254.402 55.8382 254.274 55.6579C254.147 55.4748 253.928 55.3149 253.619 55.1783L252.594 54.7242C252.032 54.4731 251.64 54.1749 251.419 53.8295C251.202 53.4818 251.135 53.0861 251.219 52.6423C251.288 52.2794 251.45 51.9777 251.707 51.7371C251.966 51.4971 252.288 51.3311 252.673 51.239C253.06 51.1476 253.48 51.1446 253.932 51.2302C254.569 51.3507 255.042 51.5848 255.352 51.9326C255.665 52.281 255.855 52.6986 255.921 53.1854Z" fill="#667185"/>
<rect x="164.424" y="55.2852" width="96" height="8" rx="4" transform="rotate(10.718 164.424 55.2852)" fill="#D0D5DD"/>
<rect x="161.82" y="69.041" width="96" height="10" rx="5" transform="rotate(10.718 161.82 69.041)" fill="#D0D5DD"/>
<rect x="158.844" y="84.7619" width="96" height="8" rx="4" transform="rotate(10.718 158.844 84.7619)" fill="#D0D5DD"/>
<rect x="247.329" y="87.7703" width="101" height="18" rx="9" transform="rotate(100.718 247.329 87.7703)" fill="#1671D9" stroke="white" stroke-width="5"/>
<rect x="224.383" y="106.835" width="101" height="18" rx="9" transform="rotate(100.718 224.383 106.835)" fill="#1671D9" stroke="white" stroke-width="5"/>
<rect x="270.275" y="68.705" width="101" height="18" rx="9" transform="rotate(100.718 270.275 68.705)" fill="#1671D9" stroke="white" stroke-width="5"/>
<path d="M270.166 53.4214C272.969 54.4348 277.358 54.1047 279.424 52.7155C276.591 42.5029 273.418 36.5328 265.102 30.0791C263.036 31.4683 260.166 35.3935 260.047 38.3715C259.928 41.3495 260.927 44.6082 262.825 47.4306C264.722 50.253 267.363 52.4079 270.166 53.4214Z" fill="url(#paint1_linear_98_1402)"/>
</g>
</g>
<defs>
<filter id="filter0_d_98_1402" x="-1.23978e-05" y="2.86102e-06" width="173.087" height="173.087" filterUnits="userSpaceOnUse" color-interpolation-filters="sRGB">
<feFlood flood-opacity="0" result="BackgroundImageFix"/>
<feColorMatrix in="SourceAlpha" type="matrix" values="0 0 0 0 0 0 0 0 0 0 0 0 0 0 0 0 0 0 127 0" result="hardAlpha"/>
<feOffset/>
<feGaussianBlur stdDeviation="4.9"/>
<feComposite in2="hardAlpha" operator="out"/>
<feColorMatrix type="matrix" values="0 0 0 0 0.516026 0 0 0 0 0.516026 0 0 0 0 0.516026 0 0 0 0.25 0"/>
<feBlend mode="normal" in2="BackgroundImageFix" result="effect1_dropShadow_98_1402"/>
<feBlend mode="normal" in="SourceGraphic" in2="effect1_dropShadow_98_1402" result="shape"/>
</filter>
<filter id="filter1_d_98_1402" x="245.568" y="5.50576" width="161.467" height="161.467" filterUnits="userSpaceOnUse" color-interpolation-filters="sRGB">
<feFlood flood-opacity="0" result="BackgroundImageFix"/>
<feColorMatrix in="SourceAlpha" type="matrix" values="0 0 0 0 0 0 0 0 0 0 0 0 0 0 0 0 0 0 127 0" result="hardAlpha"/>
<feOffset/>
<feGaussianBlur stdDeviation="4.9"/>
<feComposite in2="hardAlpha" operator="out"/>
<feColorMatrix type="matrix" values="0 0 0 0 0.516026 0 0 0 0 0.516026 0 0 0 0 0.516026 0 0 0 0.25 0"/>
<feBlend mode="normal" in2="BackgroundImageFix" result="effect1_dropShadow_98_1402"/>
<feBlend mode="normal" in="SourceGraphic" in2="effect1_dropShadow_98_1402" result="shape"/>
</filter>
<filter id="filter2_d_98_1402" x="370.568" y="2.97524" width="166.528" height="166.528" filterUnits="userSpaceOnUse" color-interpolation-filters="sRGB">
<feFlood flood-opacity="0" result="BackgroundImageFix"/>
<feColorMatrix in="SourceAlpha" type="matrix" values="0 0 0 0 0 0 0 0 0 0 0 0 0 0 0 0 0 0 127 0" result="hardAlpha"/>
<feOffset/>
<feGaussianBlur stdDeviation="4.9"/>
<feComposite in2="hardAlpha" operator="out"/>
<feColorMatrix type="matrix" values="0 0 0 0 0.516026 0 0 0 0 0.516026 0 0 0 0 0.516026 0 0 0 0.25 0"/>
<feBlend mode="normal" in2="BackgroundImageFix" result="effect1_dropShadow_98_1402"/>
<feBlend mode="normal" in="SourceGraphic" in2="effect1_dropShadow_98_1402" result="shape"/>
</filter>
<filter id="filter3_d_98_1402" x="120.568" y="-0.112164" width="172.703" height="172.703" filterUnits="userSpaceOnUse" color-interpolation-filters="sRGB">
<feFlood flood-opacity="0" result="BackgroundImageFix"/>
<feColorMatrix in="SourceAlpha" type="matrix" values="0 0 0 0 0 0 0 0 0 0 0 0 0 0 0 0 0 0 127 0" result="hardAlpha"/>
<feOffset/>
<feGaussianBlur stdDeviation="4.9"/>
<feComposite in2="hardAlpha" operator="out"/>
<feColorMatrix type="matrix" values="0 0 0 0 0.516026 0 0 0 0 0.516026 0 0 0 0 0.516026 0 0 0 0.25 0"/>
<feBlend mode="normal" in2="BackgroundImageFix" result="effect1_dropShadow_98_1402"/>
<feBlend mode="normal" in="SourceGraphic" in2="effect1_dropShadow_98_1402" result="shape"/>
</filter>
<linearGradient id="paint0_linear_98_1402" x1="79.9037" y1="68.3" x2="79.9037" y2="37.8" gradientUnits="userSpaceOnUse">
<stop stop-color="#D42620"/>
<stop offset="1" stop-color="#F19C9A"/>
</linearGradient>
<linearGradient id="paint1_linear_98_1402" x1="262.881" y1="45.9327" x2="275.177" y2="40.118" gradientUnits="userSpaceOnUse">
<stop stop-color="#B6D8FF"/>
<stop offset="1" stop-color="white"/>
</linearGradient>
<clipPath id="clip0_98_1402">
<rect x="9.79999" y="34.6417" width="131.022" height="131.022" rx="20" transform="rotate(-10.9294 9.79999 34.6417)" fill="white"/>
</clipPath>
<clipPath id="clip1_98_1402">
<rect x="154.735" y="9.68784" width="131.022" height="131.022" rx="20" transform="rotate(10.718 154.735 9.68784)" fill="white"/>
</clipPath>
</defs>
</svg>
